<svg width="30" height="30" viewBox="0 0 30 30" fill="none" xmlns="http://www.w3.org/2000/svg">
<g clip-path="url(#clip0_2861_244)">
<path d="M29.1739 8.32617L26.4727 11.0273C26.1973 11.3027 25.752 11.3027 25.4766 11.0273L18.9727 4.52344C18.6973 4.24805 18.6973 3.80273 18.9727 3.52734L21.6739 0.826172C22.7696 -0.269531 24.5509 -0.269531 25.6524 0.826172L29.1739 4.34766C30.2755 5.44336 30.2755 7.22461 29.1739 8.32617ZM16.6524 5.84766L1.2657 21.2344L0.023514 28.3535C-0.146408 29.3145 0.691483 30.1465 1.65242 29.9824L8.77156 28.7344L24.1583 13.3477C24.4337 13.0723 24.4337 12.627 24.1583 12.3516L17.6544 5.84766C17.3731 5.57227 16.9278 5.57227 16.6524 5.84766ZM7.27156 19.916C6.9493 19.5937 6.9493 19.0781 7.27156 18.7559L16.295 9.73242C16.6173 9.41016 17.1329 9.41016 17.4552 9.73242C17.7774 10.0547 17.7774 10.5703 17.4552 10.8926L8.43172 19.916C8.10945 20.2383 7.59383 20.2383 7.27156 19.916ZM5.15633 24.8438H7.96883V26.9707L4.18953 27.6328L2.36726 25.8105L3.02937 22.0312H5.15633V24.8438Z" fill="white"/>
</g>
<defs>
<clipPath id="clip0_2861_244">
<rect width="30" height="30" fill="white"/>
</clipPath>
</defs>
</svg>
